<svg xmlns="http://www.w3.org/2000/svg" xmlns:xlink="http://www.w3.org/1999/xlink"><symbol id="blue-rocket"><path d="m24.683 33.364-.03-.058a.992.992 0 0 0-.326-.463.812.812 0 0 0-.498-.175 13.85 13.85 0 0 0-2.816.312c.101-1.592.162-3.356.162-5.335a45.658 45.658 0 0 0-.699-8.238c-1.538-8.474-5.156-12.29-6.378-13.368V1.525c0-.266-.093-.522-.259-.71a.835.835 0 0 0-.625-.294.835.835 0 0 0-.626.294c-.166.188-.259.444-.259.71V6.04c-1.222 1.079-4.84 4.894-6.378 13.361a45.664 45.664 0 0 0-.699 8.245c0 1.975.062 3.742.166 5.336a13.83 13.83 0 0 0-2.82-.313.813.813 0 0 0-.498.175.993.993 0 0 0-.325.463l-.03.058c-1.966 3.84-2.277 10.263-.9 18.577.037.225.141.43.294.578a.827.827 0 0 0 .549.241h.026a.82.82 0 0 0 .545-.213c.155-.138.266-.33.314-.548.906-4.128 1.545-6.262 2.188-7.259 1.117.135 2.22.395 3.293.776l.763 3.469c.048.217.158.41.314.548a.82.82 0 0 0 .544.213h7.077a.82.82 0 0 0 .545-.213c.155-.138.265-.33.313-.548l.764-3.47a15.305 15.305 0 0 1 3.292-.775c.643.997 1.282 3.13 2.189 7.258.047.218.158.411.314.55a.82.82 0 0 0 .545.212h.025a.827.827 0 0 0 .549-.24c.153-.15.257-.354.294-.579 1.378-8.314 1.066-14.736-.9-18.577Zm-11.47-5.72c-.35 0-.691-.117-.982-.338a1.975 1.975 0 0 1-.652-.902 2.263 2.263 0 0 1-.1-1.16c.068-.39.236-.748.484-1.03.247-.28.562-.471.905-.549a1.574 1.574 0 0 1 1.023.114c.323.152.6.41.794.74.194.33.298.72.298 1.117 0 .533-.187 1.044-.518 1.42a1.67 1.67 0 0 1-1.251.589Zm.885 1.867c.834-.244 1.56-.826 2.044-1.635a4.45 4.45 0 0 0 .582-2.762c-.109-.97-.525-1.862-1.171-2.509-.647-.646-1.478-1.003-2.34-1.003-.86 0-1.692.357-2.338 1.003-.647.647-1.063 1.539-1.172 2.51a4.45 4.45 0 0 0 .582 2.76c.483.81 1.21 1.392 2.044 1.636V43.72h-3.02c-.725-1.586-2.288-6.16-2.288-16.074a44.53 44.53 0 0 1 .525-7.032h3.014a.807.807 0 0 0 .465-.15.969.969 0 0 0 .326-.406l.64-1.454h2.445l.64 1.454a.97.97 0 0 0 .326.406c.14.098.301.15.465.15h3.014a44.53 44.53 0 0 1 .525 7.032c0 2.5-.096 4.651-.25 6.5v.012c-.476 5.5-1.466 8.338-2.034 9.562h-3.024V29.51Zm-.884-21.7c1.104 1.067 3.862 4.274 5.289 10.79h-2.089l-.635-1.451a.969.969 0 0 0-.328-.407.807.807 0 0 0-.468-.149h-3.539a.807.807 0 0 0-.465.15.969.969 0 0 0-.326.406l-.64 1.453H7.924c1.428-6.518 4.186-9.724 5.29-10.788v-.003ZM4.367 42.715a.835.835 0 0 0-.625.294 10.305 10.305 0 0 0-1.763 3.925c-.487-5.314-.1-9.56 1.141-12.246.827.044 1.65.169 2.458.373a36.371 36.371 0 0 0 1.572 8.099 11.555 11.555 0 0 0-2.783-.445Zm11.694 5.023h-5.695l-.442-2.01h6.58l-.443 2.01Zm8.386-.804a10.305 10.305 0 0 0-1.762-3.928.834.834 0 0 0-.625-.291c-.934.034-1.862.183-2.768.444a35.606 35.606 0 0 0 1.561-8.096 12.743 12.743 0 0 1 2.453-.372c1.242 2.687 1.629 6.932 1.142 12.243Z" fill="#489AFF"/></symbol><symbol id="intro-1"><path d="M47 27.846V.085H0v27.761h17.84v2.067c-5.031.22-8.508.686-8.508 1.229 0 .755 6.738 1.368 15.053 1.368 8.314 0 15.053-.614 15.053-1.368 0-.604-4.306-1.114-10.277-1.295v-2H47v-.001Zm-43.914-2.38V2.227h40.826v23.24H3.086ZM23.5 3.274l5.03 4.652-.936.865L23.5 5.004 19.407 8.79l-.936-.865 5.03-4.652Zm4.093 15.593.937.865-5.03 4.65-5.03-4.651.937-.865L23.5 22.65l4.093-3.785Z" fill="#4992E6"/></symbol><symbol id="intro-2"><path d="M17.636 29.302h-6.282v2.57h22.74v-2.396L30.33 29.3H17.636v.001Zm3.325 1.578h-7.835v-.48h7.835v.48ZM0 39.752h10.147V23.968H0v15.784Zm5.202-.682c-.323 0-.585-.243-.585-.54 0-.302.263-.543.585-.543.323 0 .585.241.585.542 0 .298-.262.541-.585.541ZM5.3 24.621c.135 0 .244.1.244.225 0 .126-.11.227-.244.227-.135 0-.245-.102-.245-.227-.001-.125.11-.225.245-.225Zm-1.46.758h2.916v.217H3.84v-.217Zm-2.212.993 6.89-.004v10.843c-2.635.014-5.583.024-6.89.014V26.372ZM18.184 2.291h27.83v8.587h2.387V.085H15.8v11.227h2.385V2.291ZM31.775 21.671h4.417v-1.027h-1.37v-1.243h1.37v-2.844h-4.417v5.114ZM37.445 11.885v20.16h14.531v-20.16H37.445Zm7.573 19.148c-.387 0-.7-.291-.7-.648 0-.358.313-.647.7-.647.388 0 .7.29.7.647 0 .357-.313.648-.7.648Zm4.858-2.331h-10.33V13.827h10.332l-.002 14.875Z" fill="#4992E6"/><path d="M6.155 14.433h22.22V26.75H11.355v1.812h18.981v-15.94H4.197v10.283h1.958v-8.472Z" fill="#4992E6"/></symbol><symbol id="like"><path d="M19.967 6.247C19.675 3.034 17.4.703 14.554.703c-1.896 0-3.632 1.02-4.61 2.656C8.978 1.702 7.313.702 5.447.702 2.6.702.325 3.034.033 6.247c-.023.142-.117.889.17 2.107.415 1.757 1.373 3.355 2.77 4.62l6.967 6.324 7.088-6.323c1.396-1.266 2.354-2.864 2.769-4.621.287-1.218.193-1.965.17-2.107Z" fill="#D8D8D8"/></symbol><symbol id="logo"><g fill="none"><path d="M88.584 11.4c2.539 0 4.536.607 5.992 1.82 1.456 1.213 2.184 2.884 2.184 5.012 0 2.128-.728 3.799-2.184 5.012-1.456 1.213-3.453 1.82-5.992 1.82H83.74V31h-2.8V11.4h7.644ZM88.5 22.628c1.773 0 3.127-.373 4.06-1.12.933-.765 1.4-1.857 1.4-3.276 0-1.419-.467-2.501-1.4-3.248-.933-.765-2.287-1.148-4.06-1.148h-4.76v8.792h4.76ZM102.812 18.652c.466-.859 1.157-1.512 2.072-1.96.914-.448 2.025-.672 3.332-.672v2.604a5.252 5.252 0 0 0-.616-.028c-1.456 0-2.604.439-3.444 1.316-.822.859-1.232 2.09-1.232 3.696V31h-2.688V16.16h2.576v2.492ZM117.748 31.168c-1.475 0-2.8-.327-3.976-.98A7.237 7.237 0 0 1 111 27.5c-.654-1.157-.98-2.464-.98-3.92s.326-2.753.98-3.892A6.981 6.981 0 0 1 113.772 17c1.176-.653 2.501-.98 3.976-.98 1.474 0 2.79.327 3.948.98a6.797 6.797 0 0 1 2.744 2.688c.672 1.139 1.008 2.436 1.008 3.892s-.336 2.763-1.008 3.92a7.04 7.04 0 0 1-2.744 2.688c-1.158.653-2.474.98-3.948.98Zm0-2.352c.952 0 1.801-.215 2.548-.644a4.745 4.745 0 0 0 1.792-1.848c.429-.803.644-1.717.644-2.744 0-1.027-.215-1.932-.644-2.716a4.507 4.507 0 0 0-1.792-1.848c-.747-.43-1.596-.644-2.548-.644s-1.811.215-2.576.644c-.747.43-1.344 1.045-1.792 1.848-.43.784-.644 1.69-.644 2.716 0 1.027.214 1.941.644 2.744a5.008 5.008 0 0 0 1.792 1.848c.765.43 1.624.644 2.576.644ZM127.261 36.6c-.653 0-1.26-.075-1.82-.224-.56-.15-1.026-.373-1.4-.672l.868-2.072c.56.467 1.288.7 2.184.7.71 0 1.251-.224 1.624-.672.392-.43.588-1.073.588-1.932V16.16h2.688v15.512c0 1.53-.41 2.735-1.232 3.612-.821.877-1.988 1.316-3.5 1.316Zm3.388-23.296c-.522 0-.961-.168-1.316-.504a1.676 1.676 0 0 1-.504-1.232c0-.485.168-.896.504-1.232a1.79 1.79 0 0 1 1.316-.532c.523 0 .952.168 1.288.504.355.317.532.719.532 1.204 0 .504-.177.933-.532 1.288-.336.336-.765.504-1.288.504ZM150.534 23.664c0 .205-.018.476-.056.812h-12.04c.168 1.307.738 2.361 1.708 3.164.99.784 2.212 1.176 3.668 1.176 1.774 0 3.202-.597 4.284-1.792l1.484 1.736a6.48 6.48 0 0 1-2.52 1.792c-.989.41-2.1.616-3.332.616-1.568 0-2.958-.317-4.172-.952-1.213-.653-2.156-1.559-2.828-2.716-.653-1.157-.98-2.464-.98-3.92 0-1.437.318-2.735.952-3.892.654-1.157 1.54-2.053 2.66-2.688 1.139-.653 2.418-.98 3.836-.98 1.419 0 2.679.327 3.78.98a6.57 6.57 0 0 1 2.604 2.688c.635 1.157.952 2.483.952 3.976Zm-7.336-5.376c-1.288 0-2.37.392-3.248 1.176-.858.784-1.362 1.81-1.512 3.08h9.52c-.149-1.25-.662-2.268-1.54-3.052-.858-.803-1.932-1.204-3.22-1.204ZM160.735 31.168c-1.512 0-2.866-.327-4.06-.98a7.237 7.237 0 0 1-2.772-2.688c-.672-1.157-1.008-2.464-1.008-3.92s.336-2.753 1.008-3.892A6.981 6.981 0 0 1 156.675 17c1.194-.653 2.548-.98 4.06-.98 1.344 0 2.538.27 3.584.812a5.767 5.767 0 0 1 2.464 2.352l-2.044 1.316c-.467-.71-1.046-1.241-1.736-1.596-.691-.355-1.456-.532-2.296-.532-.971 0-1.848.215-2.632.644a4.68 4.68 0 0 0-1.82 1.848c-.43.784-.644 1.69-.644 2.716 0 1.045.214 1.97.644 2.772a4.731 4.731 0 0 0 1.82 1.82c.784.43 1.661.644 2.632.644.84 0 1.605-.177 2.296-.532.69-.355 1.269-.887 1.736-1.596l2.044 1.288a5.942 5.942 0 0 1-2.464 2.38c-1.046.541-2.24.812-3.584.812ZM178.798 30.132c-.392.336-.877.597-1.456.784a6.391 6.391 0 0 1-1.792.252c-1.493 0-2.65-.401-3.472-1.204-.821-.803-1.232-1.95-1.232-3.444v-8.148h-2.52V16.16h2.52v-3.248h2.688v3.248h4.256v2.212h-4.256v8.036c0 .803.196 1.419.588 1.848.411.43.99.644 1.736.644.822 0 1.522-.233 2.1-.7l.84 1.932ZM206.816 11.4V31h-2.296l-11.76-14.616V31h-2.8V11.4h2.296l11.76 14.616V11.4h2.8ZM217.162 11.4V31h-2.772V13.836h-4.424V11.4h7.196ZM87.492 44.688l-3.156 7.068c-.256.592-.552 1.012-.888 1.26-.336.248-.74.372-1.212.372-.304 0-.588-.048-.852-.144a1.846 1.846 0 0 1-.684-.432l.396-.636c.32.32.704.48 1.152.48.288 0 .532-.08.732-.24.208-.16.4-.432.576-.816l.276-.612-2.82-6.3h.888l2.376 5.364 2.376-5.364h.84ZM91.456 51.06a3.319 3.319 0 0 1-1.644-.408A3.063 3.063 0 0 1 88.66 49.5a3.267 3.267 0 0 1-.42-1.656c0-.616.14-1.168.42-1.656.28-.488.664-.868 1.152-1.14a3.319 3.319 0 0 1 1.644-.408c.608 0 1.156.136 1.644.408.488.272.868.652 1.14 1.14.28.488.42 1.04.42 1.656 0 .616-.14 1.168-.42 1.656a2.976 2.976 0 0 1-1.14 1.152 3.319 3.319 0 0 1-1.644.408Zm0-.756c.448 0 .848-.1 1.2-.3.36-.208.64-.5.84-.876.2-.376.3-.804.3-1.284s-.1-.908-.3-1.284c-.2-.376-.48-.664-.84-.864a2.314 2.314 0 0 0-1.2-.312c-.448 0-.852.104-1.212.312-.352.2-.632.488-.84.864-.2.376-.3.804-.3 1.284s.1.908.3 1.284c.208.376.488.668.84.876.36.2.764.3 1.212.3ZM102.448 44.688V51h-.816v-1.152a2.379 2.379 0 0 1-.924.9c-.392.208-.84.312-1.344.312-.824 0-1.476-.228-1.956-.684-.472-.464-.708-1.14-.708-2.028v-3.66h.852v3.576c0 .664.164 1.168.492 1.512.328.344.796.516 1.404.516.664 0 1.188-.2 1.572-.6.384-.408.576-.972.576-1.692v-3.312h.852ZM106.01 45.924c.2-.424.496-.744.888-.96.4-.216.892-.324 1.476-.324v.828l-.204-.012c-.664 0-1.184.204-1.56.612-.376.408-.564.98-.564 1.716V51h-.852v-6.312h.816v1.236ZM117.123 44.64c.592 0 1.128.136 1.608.408.48.264.856.64 1.128 1.128.272.488.408 1.044.408 1.668 0 .624-.136 1.18-.408 1.668a2.916 2.916 0 0 1-1.128 1.14 3.204 3.204 0 0 1-1.608.408 3.01 3.01 0 0 1-1.428-.336 2.61 2.61 0 0 1-1.008-.972V51h-.816v-8.904h.852v3.792c.264-.408.6-.716 1.008-.924.416-.216.88-.324 1.392-.324Zm-.06 5.664c.44 0 .84-.1 1.2-.3.36-.208.64-.5.84-.876.208-.376.312-.804.312-1.284s-.104-.908-.312-1.284c-.2-.376-.48-.664-.84-.864a2.355 2.355 0 0 0-1.2-.312c-.448 0-.852.104-1.212.312-.352.2-.632.488-.84.864-.2.376-.3.804-.3 1.284s.1.908.3 1.284c.208.376.488.668.84.876.36.2.764.3 1.212.3ZM127.86 48.108h-5.28c.048.656.3 1.188.756 1.596.456.4 1.032.6 1.728.6.392 0 .752-.068 1.08-.204.328-.144.612-.352.852-.624l.48.552c-.28.336-.632.592-1.056.768a3.507 3.507 0 0 1-1.38.264c-.648 0-1.224-.136-1.728-.408a3.038 3.038 0 0 1-1.164-1.152 3.267 3.267 0 0 1-.42-1.656c0-.616.132-1.168.396-1.656.272-.488.64-.868 1.104-1.14.472-.272 1-.408 1.584-.408a3.05 3.05 0 0 1 1.572.408c.464.272.828.652 1.092 1.14.264.48.396 1.032.396 1.656l-.012.264Zm-3.048-2.736c-.608 0-1.12.196-1.536.588-.408.384-.64.888-.696 1.512h4.476c-.056-.624-.292-1.128-.708-1.512-.408-.392-.92-.588-1.536-.588ZM131.658 51.06a5.03 5.03 0 0 1-1.476-.216c-.464-.152-.828-.34-1.092-.564l.384-.672c.264.208.596.38.996.516.4.128.816.192 1.248.192.576 0 1-.088 1.272-.264a.87.87 0 0 0 .42-.768c0-.232-.076-.412-.228-.54a1.41 1.41 0 0 0-.576-.3 7.263 7.263 0 0 0-.924-.204 11.681 11.681 0 0 1-1.236-.288 1.908 1.908 0 0 1-.804-.516c-.216-.24-.324-.572-.324-.996 0-.528.22-.96.66-1.296.44-.336 1.052-.504 1.836-.504.408 0 .816.056 1.224.168.408.104.744.244 1.008.42l-.372.684c-.52-.36-1.14-.54-1.86-.54-.544 0-.956.096-1.236.288-.272.192-.408.444-.408.756 0 .24.076.432.228.576.16.144.356.252.588.324.232.064.552.132.96.204.504.096.908.192 1.212.288.304.096.564.26.78.492.216.232.324.552.324.96 0 .552-.232.992-.696 1.32-.456.32-1.092.48-1.908.48ZM139.521 50.616c-.16.144-.36.256-.6.336a2.456 2.456 0 0 1-.732.108c-.592 0-1.048-.16-1.368-.48-.32-.32-.48-.772-.48-1.356v-3.816h-1.128v-.72h1.128v-1.38h.852v1.38h1.92v.72h-1.92v3.768c0 .376.092.664.276.864.192.192.464.288.816.288.176 0 .344-.028.504-.084.168-.056.312-.136.432-.24l.3.612ZM148.185 44.64c.592 0 1.128.136 1.608.408.48.264.856.64 1.128 1.128.272.488.408 1.044.408 1.668 0 .632-.136 1.192-.408 1.68a2.916 2.916 0 0 1-1.128 1.14c-.472.264-1.008.396-1.608.396-.512 0-.976-.104-1.392-.312a2.687 2.687 0 0 1-1.008-.936v3.516h-.852v-8.64h.816v1.248a2.637 2.637 0 0 1 1.008-.96 3.01 3.01 0 0 1 1.428-.336Zm-.06 5.664c.44 0 .84-.1 1.2-.3.36-.208.64-.5.84-.876.208-.376.312-.804.312-1.284s-.104-.904-.312-1.272c-.2-.376-.48-.668-.84-.876a2.355 2.355 0 0 0-1.2-.312c-.448 0-.852.104-1.212.312a2.27 2.27 0 0 0-.84.876c-.2.368-.3.792-.3 1.272s.1.908.3 1.284c.208.376.488.668.84.876.36.2.764.3 1.212.3ZM154.241 45.924c.2-.424.496-.744.888-.96.4-.216.892-.324 1.476-.324v.828l-.204-.012c-.664 0-1.184.204-1.56.612-.376.408-.564.98-.564 1.716V51h-.852v-6.312h.816v1.236ZM161.029 51.06a3.319 3.319 0 0 1-1.644-.408 3.063 3.063 0 0 1-1.152-1.152 3.267 3.267 0 0 1-.42-1.656c0-.616.14-1.168.42-1.656.28-.488.664-.868 1.152-1.14a3.319 3.319 0 0 1 1.644-.408c.608 0 1.156.136 1.644.408.488.272.868.652 1.14 1.14.28.488.42 1.04.42 1.656 0 .616-.14 1.168-.42 1.656a2.976 2.976 0 0 1-1.14 1.152 3.319 3.319 0 0 1-1.644.408Zm0-.756c.448 0 .848-.1 1.2-.3.36-.208.64-.5.84-.876.2-.376.3-.804.3-1.284s-.1-.908-.3-1.284c-.2-.376-.48-.664-.84-.864a2.314 2.314 0 0 0-1.2-.312c-.448 0-.852.104-1.212.312-.352.2-.632.488-.84.864-.2.376-.3.804-.3 1.284s.1.908.3 1.284c.208.376.488.668.84.876.36.2.764.3 1.212.3ZM165.397 53.388c-.264 0-.512-.036-.744-.108a1.41 1.41 0 0 1-.588-.3l.3-.648c.248.216.576.324.984.324.336 0 .592-.1.768-.3.184-.2.276-.496.276-.888v-6.78h.852v6.78c0 .592-.16 1.06-.48 1.404-.32.344-.776.516-1.368.516Zm1.428-10.092a.603.603 0 0 1-.444-.18.59.59 0 0 1-.18-.432c0-.16.06-.3.18-.42s.268-.18.444-.18.324.06.444.18c.12.112.18.248.18.408 0 .176-.06.324-.18.444a.603.603 0 0 1-.444.18ZM175.482 48.108h-5.28c.048.656.3 1.188.756 1.596.456.4 1.032.6 1.728.6.392 0 .752-.068 1.08-.204.328-.144.612-.352.852-.624l.48.552c-.28.336-.632.592-1.056.768a3.507 3.507 0 0 1-1.38.264c-.648 0-1.224-.136-1.728-.408a3.038 3.038 0 0 1-1.164-1.152 3.267 3.267 0 0 1-.42-1.656c0-.616.132-1.168.396-1.656.272-.488.64-.868 1.104-1.14.472-.272 1-.408 1.584-.408a3.05 3.05 0 0 1 1.572.408c.464.272.828.652 1.092 1.14.264.48.396 1.032.396 1.656l-.012.264Zm-3.048-2.736c-.608 0-1.12.196-1.536.588-.408.384-.64.888-.696 1.512h4.476c-.056-.624-.292-1.128-.708-1.512-.408-.392-.92-.588-1.536-.588ZM180.204 51.06a3.436 3.436 0 0 1-1.68-.408 2.976 2.976 0 0 1-1.152-1.14 3.333 3.333 0 0 1-.42-1.668c0-.616.14-1.168.42-1.656.28-.488.664-.868 1.152-1.14a3.436 3.436 0 0 1 1.68-.408c.544 0 1.028.108 1.452.324.432.208.772.516 1.02.924l-.636.432a1.945 1.945 0 0 0-.792-.696c-.32-.16-.668-.24-1.044-.24-.456 0-.868.104-1.236.312-.36.2-.644.488-.852.864-.2.376-.3.804-.3 1.284 0 .488.1.92.3 1.296.208.368.492.656.852.864.368.2.78.3 1.236.3.376 0 .724-.076 1.044-.228.32-.152.584-.384.792-.696l.636.432c-.248.408-.588.72-1.02.936a3.304 3.304 0 0 1-1.452.312ZM188.104 50.616c-.16.144-.36.256-.6.336a2.456 2.456 0 0 1-.732.108c-.592 0-1.048-.16-1.368-.48-.32-.32-.48-.772-.48-1.356v-3.816h-1.128v-.72h1.128v-1.38h.852v1.38h1.92v.72h-1.92v3.768c0 .376.092.664.276.864.192.192.464.288.816.288.176 0 .344-.028.504-.084.168-.056.312-.136.432-.24l.3.612ZM199.012 48.108h-5.28c.048.656.3 1.188.756 1.596.456.4 1.032.6 1.728.6.392 0 .752-.068 1.08-.204.328-.144.612-.352.852-.624l.48.552c-.28.336-.632.592-1.056.768a3.507 3.507 0 0 1-1.38.264c-.648 0-1.224-.136-1.728-.408A3.038 3.038 0 0 1 193.3 49.5a3.267 3.267 0 0 1-.42-1.656c0-.616.132-1.168.396-1.656.272-.488.64-.868 1.104-1.14.472-.272 1-.408 1.584-.408a3.05 3.05 0 0 1 1.572.408c.464.272.828.652 1.092 1.14.264.48.396 1.032.396 1.656l-.012.264Zm-3.048-2.736c-.608 0-1.12.196-1.536.588-.408.384-.64.888-.696 1.512h4.476c-.056-.624-.292-1.128-.708-1.512-.408-.392-.92-.588-1.536-.588ZM206.305 44.688 203.497 51h-.876l-2.796-6.312h.888l2.364 5.376 2.388-5.376h.84ZM213.185 48.108h-5.28c.048.656.3 1.188.756 1.596.456.4 1.032.6 1.728.6.392 0 .752-.068 1.08-.204.328-.144.612-.352.852-.624l.48.552c-.28.336-.632.592-1.056.768a3.507 3.507 0 0 1-1.38.264c-.648 0-1.224-.136-1.728-.408a3.038 3.038 0 0 1-1.164-1.152 3.267 3.267 0 0 1-.42-1.656c0-.616.132-1.168.396-1.656.272-.488.64-.868 1.104-1.14.472-.272 1-.408 1.584-.408a3.05 3.05 0 0 1 1.572.408c.464.272.828.652 1.092 1.14.264.48.396 1.032.396 1.656l-.012.264Zm-3.048-2.736c-.608 0-1.12.196-1.536.588-.408.384-.64.888-.696 1.512h4.476c-.056-.624-.292-1.128-.708-1.512-.408-.392-.92-.588-1.536-.588ZM216.107 45.924c.2-.424.496-.744.888-.96.4-.216.892-.324 1.476-.324v.828l-.204-.012c-.664 0-1.184.204-1.56.612-.376.408-.564.98-.564 1.716V51h-.852v-6.312h.816v1.236Z" fill="#405063"/><circle cx="30" cy="30" r="30" fill="#4992E6"/><path d="M32.904 18.6V41H29.48L17.128 25.832V41H13V18.6h3.424l12.352 15.168V18.6h4.128ZM43 18.5h4.5V41H43V18.5Z" fill="#fff"/><path d="M41.492 18.5V24h-5.5l5.5-5.5Z" fill="#9BEBFF"/></g></symbol><symbol id="purple-rocket"><g fill="none"><path d="M35.256 35.881c-7.938-6.007-9.872-20.222-9.917-20.574-.029-3.298-.912-5.495-2.487-8.622C21.362 3.515 19.956.52 17.837.52c-2.12 0-3.526 2.994-5.015 6.164-.502 1.28-2.447 3.979-2.488 8.622-.045.348-1.98 14.567-9.916 20.576a1.03 1.03 0 0 0-.307.383 1.183 1.183 0 0 0-.111.502v7.463c0 .26.084.51.235.706a.91.91 0 0 0 .587.352l6.688.95v1.19c0 .283.1.554.275.754.176.2.415.313.664.313v3.198c0 .283.099.554.275.754.176.2.415.312.664.312h3.755a.886.886 0 0 0 .664-.312c.176-.2.275-.471.275-.754v-3.198a.886.886 0 0 0 .663-.313c.177-.2.275-.47.275-.754v-1.066h5.633v1.066c0 .283.099.554.275.754.176.2.415.313.664.313v3.198c0 .283.099.554.275.754.176.2.415.312.664.312h3.755a.886.886 0 0 0 .663-.312c.177-.2.275-.471.275-.754v-3.198a.886.886 0 0 0 .664-.313c.176-.2.275-.47.275-.754v-1.19l6.688-.95a.91.91 0 0 0 .587-.352c.152-.195.235-.446.235-.706v-7.463c0-.175-.038-.348-.11-.503a1.03 1.03 0 0 0-.307-.384Zm-1.46 1.447v1.573h-5.643a7.803 7.803 0 0 0-.912-2.827 6.835 6.835 0 0 0-1.854-2.152c-.012-.009-.028-.024-.04-.032V23.592c1.502 4.634 4.099 10.223 8.449 13.736Zm-11.265 7.97v-6.035a5.62 5.62 0 0 1 .614-1.987 4.952 4.952 0 0 1 1.263-1.542c2.2 1.93 1.799 3.438 1.878 4.233v6.396H22.53v-1.066ZM17.837 2.652c.878 0 2.046 2.27 2.994 4.264h-5.989c.948-1.995 2.117-4.264 2.995-4.264Zm-4.694 36.61v7.1H9.388v-7.1a5.62 5.62 0 0 1 .614-1.987 4.953 4.953 0 0 1 1.263-1.542c.094.107 1.878 1.538 1.878 3.529ZM1.878 37.328c4.35-3.518 6.946-9.102 8.448-13.736V33.89a6.542 6.542 0 0 0-1.901 2.145A7.519 7.519 0 0 0 7.52 38.9H1.878v-1.573Zm0 5.962v-2.257H7.51v3.056l-5.632-.8Zm10.326 7.338h-1.878v-2.132h1.878v2.132Zm6.572-6.397v-9.595c0-.283-.1-.554-.276-.754a.886.886 0 0 0-.663-.312.886.886 0 0 0-.664.312c-.176.2-.275.471-.275.754v9.595H15.02v-4.968a7.895 7.895 0 0 0-.867-3.052 6.894 6.894 0 0 0-1.949-2.321V15.446c.01-2.262.575-4.477 1.63-6.397h8.006c1.06 1.918 1.624 4.134 1.63 6.397V33.89a6.713 6.713 0 0 0-1.964 2.31 7.713 7.713 0 0 0-.853 3.063v4.968h-1.877Zm6.57 6.397H23.47v-2.132h1.878v2.132Zm8.45-7.338-5.633.8v-3.057h5.633v2.257Z" fill="#9570EE"/><path d="M21.592 16.512c0-1.13-.396-2.215-1.1-3.015-.704-.8-1.66-1.249-2.655-1.249-.996 0-1.951.45-2.655 1.25-.705.799-1.1 1.884-1.1 3.014 0 .283.099.554.275.754.176.2.415.313.663.313h5.633a.886.886 0 0 0 .664-.313c.176-.2.275-.47.275-.753Zm-5.38-1.066c.165-.323.402-.592.687-.779.285-.187.608-.285.938-.285.329 0 .652.098.938.285.285.187.522.456.687.78h-3.25Z" fill="#9570EE"/></g></symbol><symbol id="red-rocket"><g fill="none"><path d="m31.895 51.952.76-3.457h.207c.132 0 .262-.03.382-.09a.952.952 0 0 0 .318-.26c.088-.11.155-.24.196-.382.042-.142.056-.292.043-.44-.112-1.299-.197-2.943-.288-4.685-.084-1.626-.176-3.38-.302-5.149-.37-5.25-1.097-11.622-3.436-14.274a.886.886 0 0 0-.664-.312.886.886 0 0 0-.664.312c-1.851 2.103-2.695 6.375-3.156 10.982a20.561 20.561 0 0 1-1.924-.44c.063-1.672.106-3.495.106-5.521 0-22.7-5.804-27.356-6.051-27.544a.806.806 0 0 0-.103-.054.824.824 0 0 0-.84 0 .805.805 0 0 0-.101.054c-.245.188-6.05 4.843-6.05 27.544 0 2.026.042 3.851.108 5.526a20.52 20.52 0 0 1-1.916.44c-.48-4.661-1.344-8.92-3.161-10.983a.886.886 0 0 0-.664-.312.886.886 0 0 0-.664.312C1.684 25.885.979 31.934.604 37.498c-.099 1.486-.175 2.964-.247 4.366-.103 2.033-.202 3.951-.351 5.446-.015.15-.002.3.039.443.04.143.106.275.194.387a.954.954 0 0 0 .317.262c.12.061.251.093.383.093h.206l.761 3.457c.05.23.168.436.333.582a.87.87 0 0 0 .578.226h3.756a.87.87 0 0 0 .577-.226c.165-.146.283-.351.333-.582l.762-3.457h.205c.132 0 .262-.03.383-.09a.953.953 0 0 0 .317-.26c.088-.11.155-.24.197-.382.04-.142.055-.292.042-.44-.128-1.435-.221-3.413-.311-5.175a16.796 16.796 0 0 1 1.907-1.134 40.536 40.536 0 0 0 1.257 6.7l.933 4.238c.05.23.167.435.332.581a.87.87 0 0 0 .577.227h5.633a.87.87 0 0 0 .578-.226c.165-.146.282-.351.333-.582l.924-4.2a36.967 36.967 0 0 0 1.264-6.737c.666.336 1.312.72 1.935 1.15-.094 1.919-.188 3.725-.333 5.145-.014.15-.001.3.04.443.04.143.106.275.194.386a.956.956 0 0 0 .316.263c.12.061.25.093.383.093h.206l.76 3.457c.052.23.169.436.334.582a.87.87 0 0 0 .578.226h3.755a.87.87 0 0 0 .578-.226c.165-.146.282-.351.333-.582Zm-1.85-11.416 1.409-1.066c.068 1.13.126 2.24.18 3.292.068 1.28.131 2.508.206 3.596h-1.795v-5.822Zm-.939-14.82c1.349 2.579 1.894 7.456 2.186 11.318l-2.703 2.04c-.13.098-.236.23-.31.385-.073.156-.112.33-.111.506v6.397h-1.784c.093-1.28.17-2.738.248-4.265.286-5.56.664-12.968 2.474-16.38v-.002Zm-7.51 2.52c0 5.26-.332 13.125-1.621 18.126h-2.136V23.775a2.865 2.865 0 0 0 1.362-1.161 3.483 3.483 0 0 0 .517-1.842c0-.66-.18-1.304-.517-1.842a2.864 2.864 0 0 0-1.361-1.16V4.613c1.546 3.004 3.755 9.727 3.755 23.623Zm-4.695-8.53c.185 0 .367.062.521.18.155.117.275.283.346.478.071.195.09.41.053.616a1.117 1.117 0 0 1-.257.546.91.91 0 0 1-.48.292.835.835 0 0 1-.543-.06.976.976 0 0 1-.421-.393 1.171 1.171 0 0 1-.158-.593c0-.283.099-.554.275-.754a.886.886 0 0 1 .664-.312Zm-.94-15.097v13.16a2.864 2.864 0 0 0-1.36 1.161 3.483 3.483 0 0 0-.518 1.842c0 .66.18 1.304.517 1.842s.813.944 1.362 1.16v22.588h-2.13c-1.308-5.045-1.626-12.886-1.626-18.126 0-13.908 2.213-20.63 3.756-23.627ZM4.696 25.72c2.235 4.3 2.356 15.15 2.732 20.64H5.634v-6.396c0-.176-.038-.349-.111-.503a1.03 1.03 0 0 0-.307-.384L2.52 37.037c.278-3.854.812-8.723 2.175-11.314v-.002ZM1.972 46.362c.1-1.31.177-2.81.257-4.371.041-.813.085-1.653.133-2.504l1.394 1.048v5.827H1.972Zm3.864 4.265H3.55l-.47-2.132H6.31l-.473 2.133Zm3.106-10.85-.048-.823a117.87 117.87 0 0 0-.188-2.625 23.988 23.988 0 0 0 1.829-.401c.06 1.035.134 1.99.214 2.879a18.25 18.25 0 0 0-1.804.97h-.003Zm10.042 10.85h-4.167l-.47-2.132h5.106l-.469 2.133Zm4.26-14.525c0-.06.008-.114.012-.174.547.142 1.157.276 1.83.4a161.644 161.644 0 0 0-.233 3.448 18.364 18.364 0 0 0-1.808-.968c.074-.832.14-1.745.199-2.706Zm7.007 14.526h-2.29l-.469-2.133h3.228l-.47 2.133Z" fill="#FF56A9"/></g></symbol><symbol id="right-arrow"><path d="M14.872.305a1.056 1.056 0 0 0-1.5 1.486l4.773 4.773H1.487A1.046 1.046 0 0 0 .436 7.616a1.057 1.057 0 0 0 1.051 1.066h16.657l-4.773 4.76a1.077 1.077 0 0 0 0 1.5 1.051 1.051 0 0 0 1.5 0l6.575-6.576a1.034 1.034 0 0 0 0-1.486L14.872.305Z" fill="#fff"/></symbol><symbol id="vector-header"><g fill="none"><path d="M95.806 312.041C-28.374 211.721-5.784 62.214 21.034 0H853v666.853c-93.387 2.593-308.367-28.19-421.189-172.059-141.027-179.837-180.78-57.354-336.005-182.753Z" fill="#F3F5FE"/></g></symbol></svg>