<svg width="52" height="40" xmlns="http://www.w3.org/2000/svg"><path d="M17.636 29.302h-6.282v2.57h22.74v-2.396L30.33 29.3H17.636v.001Zm3.325 1.578h-7.835v-.48h7.835v.48ZM0 39.752h10.147V23.968H0v15.784Zm5.202-.682c-.323 0-.585-.243-.585-.54 0-.302.263-.543.585-.543.323 0 .585.241.585.542 0 .298-.262.541-.585.541ZM5.3 24.621c.135 0 .244.1.244.225 0 .126-.11.227-.244.227-.135 0-.245-.102-.245-.227-.001-.125.11-.225.245-.225Zm-1.46.758h2.916v.217H3.84v-.217Zm-2.212.993 6.89-.004v10.843c-2.635.014-5.583.024-6.89.014V26.372ZM18.184 2.291h27.83v8.587h2.387V.085H15.8v11.227h2.385V2.291Zm13.591 19.38h4.417v-1.027h-1.37v-1.243h1.37v-2.844h-4.417v5.114Zm5.67-9.786v20.16h14.531v-20.16H37.445Zm7.573 19.148c-.387 0-.7-.291-.7-.648 0-.358.313-.647.7-.647.388 0 .7.29.7.647 0 .357-.313.648-.7.648Zm4.858-2.331h-10.33V13.827h10.332l-.002 14.875Z" fill="#4992E6"/><path d="M6.155 14.433h22.22V26.75h-17.02v1.812h18.981v-15.94H4.197v10.283h1.958v-8.472Z" fill="#4992E6"/></svg>